<svg xmlns="http://www.w3.org/2000/svg" xmlns:xlink="http://www.w3.org/1999/xlink" width="593" height="138.472" viewBox="0 0 593 138.472"><defs><clipPath id="clip-path"><rect id="Rectangle_5" data-name="Rectangle 5" width="593" height="138.472" fill="none"></rect></clipPath></defs><g id="Group_6" data-name="Group 6" transform="translate(0 0)"><g id="Group_5" data-name="Group 5" transform="translate(0 0)" clip-path="url(#clip-path)"><path id="Path_14" data-name="Path 14" d="M69.236,0a69.236,69.236,0,1,0,69.236,69.236A69.235,69.235,0,0,0,69.236,0" transform="translate(0 0)" fill="#e84910"></path><path id="Path_15" data-name="Path 15" d="M62.766,120.933a58.166,58.166,0,1,1,58.166-58.166,58.164,58.164,0,0,1-58.166,58.166" transform="translate(6.47 6.468)" fill="#004996"></path><path id="Path_16" data-name="Path 16" d="M90.75,56.792V39.385c0-13.014-9.7-22.364-21.563-22.364H67a20.612,20.612,0,0,0-15.383,7.13,20.616,20.616,0,0,0-15.383-7.13H34.042c-11.859,0-21.563,10.649-21.563,23.663V67.34H23.66V44.976c0-5.59,0-16.771,11.181-16.771S46.024,39.385,46.024,44.976V67.34H57.2V44.976c0-4.621,0-16.771,11.183-16.771s11.181,12.15,11.181,16.771V56.792Z" transform="translate(17.54 23.924)" fill="#fff"></path><path id="Path_17" data-name="Path 17" d="M51.438,40.093a5.59,5.59,0,1,1-6.591-4.366,5.588,5.588,0,0,1,6.591,4.366" transform="translate(56.738 50.057)" fill="#e84910"></path><path id="Path_18" data-name="Path 18" d="M69.23,10.5H85.268L93.5,33.392,101.731,10.5h15.737V53.456H105.214V26.724L94.7,53.456H90.615L80.223,26.724V53.456H69.23ZM169.35,31.47v.481c0,13.214-9.071,22.227-22.949,22.227s-22.528-9.014-22.528-21.929v-.481c0-13.1,9.853-21.866,22.708-21.866,13.1,0,22.768,8.232,22.768,21.568m-12.855.18c0-7.63-3.846-12.136-9.913-12.136s-9.853,4.385-9.853,12.2v.479c0,7.811,3.967,12.316,9.913,12.316,6.067,0,9.853-4.686,9.853-12.374Zm26.636,21.806h12.376V20h11.114V10.5h-34.6V20h11.114ZM254.167,31.47v.481c0,13.214-9.071,22.227-22.949,22.227s-22.53-9.014-22.53-21.929v-.481c0-13.1,9.853-21.866,22.711-21.866,13.1,0,22.768,8.232,22.768,21.568m-12.858.18c0-7.63-3.844-12.136-9.911-12.136s-9.853,4.385-9.853,12.2v.479c0,7.811,3.964,12.316,9.913,12.316,6.067,0,9.851-4.686,9.851-12.374Zm56.027,21.806H284.361l-8.71-15.379h-2.884V53.456H260.51V10.5h16.822c11.234,0,17.481,4.568,17.481,13.639v.238c0,6.129-3.245,9.555-7.751,11.3ZM282.917,24.621c0-3.486-2.163-4.866-6.127-4.866h-4.024V30.087h3.964c4.145,0,6.187-1.742,6.187-5.225Zm54.589.241V25.1c0,9.011-6.069,13.877-16.7,13.877h-4.623V53.456H303.922V10.5h16.343c11.773,0,17.24,5.23,17.24,14.361m-11.715.058c0-3.664-2.163-5.165-6.007-5.165h-3.6V30.568h3.541c3.967,0,6.069-1.862,6.069-5.408Zm61.745,6.55v.481c0,13.214-9.071,22.227-22.949,22.227S342.06,45.165,342.06,32.249v-.481c0-13.1,9.853-21.866,22.708-21.866,13.1,0,22.768,8.232,22.768,21.568m-12.858.18c0-7.63-3.844-12.136-9.911-12.136s-9.853,4.385-9.853,12.2v.479c0,7.811,3.967,12.316,9.913,12.316,6.067,0,9.851-4.686,9.851-12.374ZM394.25,53.456h12.434V10.5H394.25Zm20.9,0h10.813V26.483l15.679,26.973h11.9V10.5H442.781V34.713L429.024,10.5H415.147Zm56.948,0h12.374V20h11.116V10.5h-34.6V20H472.1Z" transform="translate(97.304 13.918)" fill="#004996"></path><path id="Path_19" data-name="Path 19" d="M82.627,74.1c6.019,0,9.692-2.033,12.737-5.86V73.4h6.488V46.44c0-11.409-7.111-14.614-14.926-14.614-7.893,0-15.316,3.44-16.175,12.737h6.485c.625-5,3.75-7.344,9.377-7.344,6.252,0,8.751,2.735,8.751,9.22V49.41H89.5c-10.471,0-20.473,3.2-20.473,12.658,0,8.362,6.016,12.035,13.6,12.035m.625-5.157c-5.7,0-7.736-2.658-7.736-6.877,0-6.016,6.019-8.049,14.224-8.049h5.624V59.1c0,6.329-5.234,9.846-12.112,9.846M113.807,73.4h6.485V50.972c0-10.079,5.237-12.658,13.442-13.05v-6.1c-7.346.236-10.863,3.44-13.442,8.049V32.531h-6.485Zm44.151.7c9.22,0,16.021-4.3,17.426-12.5H168.9c-.859,4.768-4.532,7.113-10.861,7.113-8.362,0-12.817-5.16-13.129-14.457H175.7v-2.11c0-14.614-8.908-20.319-18.364-20.319-11.253,0-19.146,8.6-19.146,20.942v.625c0,12.583,8.205,20.709,19.771,20.709M145.142,49.018c1.095-7.267,5.55-11.8,12.191-11.8,6.721,0,11.1,3.361,11.722,11.8ZM184.84,73.4h6.485V48.629c0-7.346,5.393-11.176,11.409-11.176,6.565,0,9.612,3.2,9.612,10.394V73.4h6.485V48.316c0-11.878-5.939-16.49-14.378-16.49-6.721,0-11.253,3.361-13.129,7.19V32.531H184.84Zm56.186.7c6.016,0,9.689-2.033,12.737-5.86V73.4h6.485V46.44c0-11.409-7.111-14.614-14.924-14.614-7.892,0-15.318,3.44-16.177,12.737h6.485c.625-5,3.753-7.344,9.379-7.344,6.252,0,8.751,2.735,8.751,9.22V49.41H247.9c-10.471,0-20.476,3.2-20.476,12.658,0,8.362,6.019,12.035,13.6,12.035m.625-5.157c-5.706,0-7.736-2.658-7.736-6.877,0-6.016,6.016-8.049,14.221-8.049h5.627V59.1c0,6.329-5.234,9.846-12.112,9.846" transform="translate(97.025 44.732)" fill="#e84910"></path><path id="Path_20" data-name="Path 20" d="M159.2,57.573h1.629V45.538l7.089,12.035h1.96V43.539h-1.626v11.6l-6.834-11.6H159.2Zm29.7.176c4.085,0,6.81-3.178,6.81-7.144v-.156a6.882,6.882,0,1,0-13.757.038v.159a6.837,6.837,0,0,0,6.947,7.1m0-1.41c-2.925,0-5.184-2.317-5.184-5.713v-.159c0-3.336,1.886-5.732,5.145-5.732,3.24,0,5.085,2.552,5.085,5.694v.156c0,3.4-1.924,5.754-5.047,5.754m21.084,1.234h1.706V44.93h4.085v-1.39H205.9v1.39h4.082Zm20.24,0h1.706V44.93h4.082v-1.39h-9.87v1.39h4.082Zm17.452,0h1.706V43.539h-1.706Zm14.565,0h1.626V45.538l7.089,12.035h1.963V43.539h-1.629v11.6l-6.834-11.6h-2.216Zm29.545.176c3.591,0,6.084-2.155,6.084-6.221V50.489H292.1V51.9h4.1c-.058,2.495-1.374,4.479-4.417,4.479-3.3,0-5.028-2.278-5.028-5.752V50.47c0-3.437,1.845-5.795,5.066-5.795,2.042,0,3.575.866,3.967,3.1h1.706c-.431-3.161-2.923-4.455-5.711-4.455-4.027,0-6.793,3.062-6.793,7.166v.156c0,4.1,2.473,7.1,6.793,7.1m18.179-.176h1.706V51.331h7.383v6.242h1.706V43.539H319.05V49.9h-7.383v-6.36h-1.706Zm22.5,0h1.609l1.354-4.044h5.79l1.374,4.044h1.689l-4.751-14.034h-2.237Zm5.869-12.622,2.434,7.226h-4.869Zm17.649,12.622h1.568V45.755l4.811,11.818h.529l4.655-11.818V57.573h1.706V43.539h-2.355l-4.2,10.933-4.34-10.933h-2.372Z" transform="translate(223.754 60.892)" fill="#004996"></path></g></g></svg>